<mxfile host="app.diagrams.net" modified="2020-10-11T15:21:44.358Z" agent="5.0 (Macintosh; Intel Mac OS X 10_15_7) AppleWebKit/605.1.15 (KHTML, like Gecko) Version/14.0 Safari/605.1.15" etag="F9U1T25gUhu6ypLrvZK3" version="13.7.9" type="github">
  <diagram id="C5RBs43oDa-KdzZeNtuy" name="Page-1">
    <mxGraphModel dx="854" dy="1091" grid="1" gridSize="10" guides="1" tooltips="1" connect="1" arrows="1" fold="1" page="1" pageScale="1" pageWidth="827" pageHeight="1169" math="0" shadow="0">
      <root>
        <mxCell id="WIyWlLk6GJQsqaUBKTNV-0" />
        <mxCell id="WIyWlLk6GJQsqaUBKTNV-1" parent="WIyWlLk6GJQsqaUBKTNV-0" />
        <mxCell id="f7o3RJ1YymLaZaOh2jX9-0" value="" style="endArrow=block;endSize=10;endFill=0;shadow=0;strokeWidth=1;rounded=0;edgeStyle=elbowEdgeStyle;elbow=vertical;fontFamily=TitilliumText25L;fontColor=#012656;exitX=0.5;exitY=0;exitDx=0;exitDy=0;entryX=0.5;entryY=1;entryDx=0;entryDy=0;strokeColor=#012656;" edge="1" parent="WIyWlLk6GJQsqaUBKTNV-1" source="f7o3RJ1YymLaZaOh2jX9-16" target="f7o3RJ1YymLaZaOh2jX9-1">
          <mxGeometry width="160" relative="1" as="geometry">
            <mxPoint x="109.99999999999989" y="347" as="sourcePoint" />
            <mxPoint x="203" y="297" as="targetPoint" />
          </mxGeometry>
        </mxCell>
        <mxCell id="f7o3RJ1YymLaZaOh2jX9-6" value="" style="endArrow=block;endSize=10;endFill=0;shadow=0;strokeWidth=1;rounded=0;edgeStyle=elbowEdgeStyle;elbow=vertical;fontFamily=TitilliumText25L;fontColor=#012656;entryX=0.5;entryY=1;entryDx=0;entryDy=0;strokeColor=#012656;exitX=0.5;exitY=0;exitDx=0;exitDy=0;dashed=1;" edge="1" parent="WIyWlLk6GJQsqaUBKTNV-1" source="f7o3RJ1YymLaZaOh2jX9-1" target="f7o3RJ1YymLaZaOh2jX9-13">
          <mxGeometry width="160" relative="1" as="geometry">
            <mxPoint x="120" y="157" as="sourcePoint" />
            <mxPoint x="210" y="126.99999999999977" as="targetPoint" />
          </mxGeometry>
        </mxCell>
        <mxCell id="f7o3RJ1YymLaZaOh2jX9-12" value="" style="endArrow=block;endSize=10;endFill=0;shadow=0;strokeWidth=1;rounded=0;edgeStyle=elbowEdgeStyle;elbow=vertical;fontFamily=TitilliumText25L;fontColor=#012656;strokeColor=#012656;exitX=0.5;exitY=0;exitDx=0;exitDy=0;dashed=1;entryX=0.5;entryY=1;entryDx=0;entryDy=0;" edge="1" parent="WIyWlLk6GJQsqaUBKTNV-1" source="f7o3RJ1YymLaZaOh2jX9-7" target="f7o3RJ1YymLaZaOh2jX9-13">
          <mxGeometry width="160" relative="1" as="geometry">
            <mxPoint x="130" y="176.99999999999977" as="sourcePoint" />
            <mxPoint x="210" y="137" as="targetPoint" />
          </mxGeometry>
        </mxCell>
        <mxCell id="f7o3RJ1YymLaZaOh2jX9-1" value="Person" style="swimlane;fontStyle=2;align=center;verticalAlign=top;childLayout=stackLayout;horizontal=1;startSize=26;horizontalStack=0;resizeParent=1;resizeLast=0;collapsible=1;marginBottom=0;rounded=0;shadow=0;strokeWidth=1;fontFamily=TitilliumText25L;fontColor=#012656;strokeColor=#012656;" vertex="1" parent="WIyWlLk6GJQsqaUBKTNV-1">
          <mxGeometry x="40" y="167" width="160" height="120" as="geometry">
            <mxRectangle x="230" y="140" width="160" height="26" as="alternateBounds" />
          </mxGeometry>
        </mxCell>
        <mxCell id="f7o3RJ1YymLaZaOh2jX9-2" value="+firstName:String" style="text;align=left;verticalAlign=top;spacingLeft=4;spacingRight=4;overflow=hidden;rotatable=0;points=[[0,0.5],[1,0.5]];portConstraint=eastwest;fontFamily=TitilliumText25L;fontColor=#012656;" vertex="1" parent="f7o3RJ1YymLaZaOh2jX9-1">
          <mxGeometry y="26" width="160" height="26" as="geometry" />
        </mxCell>
        <mxCell id="f7o3RJ1YymLaZaOh2jX9-3" value="+lastName:String" style="text;align=left;verticalAlign=top;spacingLeft=4;spacingRight=4;overflow=hidden;rotatable=0;points=[[0,0.5],[1,0.5]];portConstraint=eastwest;rounded=0;shadow=0;html=0;fontFamily=TitilliumText25L;fontColor=#012656;" vertex="1" parent="f7o3RJ1YymLaZaOh2jX9-1">
          <mxGeometry y="52" width="160" height="26" as="geometry" />
        </mxCell>
        <mxCell id="f7o3RJ1YymLaZaOh2jX9-4" value="+birthDate:String" style="text;align=left;verticalAlign=top;spacingLeft=4;spacingRight=4;overflow=hidden;rotatable=0;points=[[0,0.5],[1,0.5]];portConstraint=eastwest;rounded=0;shadow=0;html=0;fontFamily=TitilliumText25L;fontColor=#012656;" vertex="1" parent="f7o3RJ1YymLaZaOh2jX9-1">
          <mxGeometry y="78" width="160" height="26" as="geometry" />
        </mxCell>
        <mxCell id="f7o3RJ1YymLaZaOh2jX9-5" value="" style="line;html=1;strokeWidth=1;align=left;verticalAlign=middle;spacingTop=-1;spacingLeft=3;spacingRight=3;rotatable=0;labelPosition=right;points=[];portConstraint=eastwest;fontFamily=TitilliumText25L;fontColor=#012656;strokeColor=#012656;" vertex="1" parent="f7o3RJ1YymLaZaOh2jX9-1">
          <mxGeometry y="104" width="160" height="8" as="geometry" />
        </mxCell>
        <mxCell id="f7o3RJ1YymLaZaOh2jX9-7" value="Klingon" style="swimlane;fontStyle=2;align=center;verticalAlign=top;childLayout=stackLayout;horizontal=1;startSize=26;horizontalStack=0;resizeParent=1;resizeLast=0;collapsible=1;marginBottom=0;rounded=0;shadow=0;strokeWidth=1;fontFamily=TitilliumText25L;fontColor=#012656;strokeColor=#012656;" vertex="1" parent="WIyWlLk6GJQsqaUBKTNV-1">
          <mxGeometry x="230" y="167" width="160" height="120" as="geometry">
            <mxRectangle x="230" y="140" width="160" height="26" as="alternateBounds" />
          </mxGeometry>
        </mxCell>
        <mxCell id="f7o3RJ1YymLaZaOh2jX9-8" value="+firstName:String" style="text;align=left;verticalAlign=top;spacingLeft=4;spacingRight=4;overflow=hidden;rotatable=0;points=[[0,0.5],[1,0.5]];portConstraint=eastwest;fontFamily=TitilliumText25L;fontColor=#012656;" vertex="1" parent="f7o3RJ1YymLaZaOh2jX9-7">
          <mxGeometry y="26" width="160" height="26" as="geometry" />
        </mxCell>
        <mxCell id="f7o3RJ1YymLaZaOh2jX9-9" value="+lastName:String" style="text;align=left;verticalAlign=top;spacingLeft=4;spacingRight=4;overflow=hidden;rotatable=0;points=[[0,0.5],[1,0.5]];portConstraint=eastwest;rounded=0;shadow=0;html=0;fontFamily=TitilliumText25L;fontColor=#012656;" vertex="1" parent="f7o3RJ1YymLaZaOh2jX9-7">
          <mxGeometry y="52" width="160" height="26" as="geometry" />
        </mxCell>
        <mxCell id="f7o3RJ1YymLaZaOh2jX9-10" value="+honor:String" style="text;align=left;verticalAlign=top;spacingLeft=4;spacingRight=4;overflow=hidden;rotatable=0;points=[[0,0.5],[1,0.5]];portConstraint=eastwest;rounded=0;shadow=0;html=0;fontFamily=TitilliumText25L;fontColor=#012656;" vertex="1" parent="f7o3RJ1YymLaZaOh2jX9-7">
          <mxGeometry y="78" width="160" height="26" as="geometry" />
        </mxCell>
        <mxCell id="f7o3RJ1YymLaZaOh2jX9-11" value="" style="line;html=1;strokeWidth=1;align=left;verticalAlign=middle;spacingTop=-1;spacingLeft=3;spacingRight=3;rotatable=0;labelPosition=right;points=[];portConstraint=eastwest;fontFamily=TitilliumText25L;fontColor=#012656;strokeColor=#012656;" vertex="1" parent="f7o3RJ1YymLaZaOh2jX9-7">
          <mxGeometry y="104" width="160" height="8" as="geometry" />
        </mxCell>
        <mxCell id="f7o3RJ1YymLaZaOh2jX9-13" value="&lt;&lt;interface&gt;&gt;&#xa;Biped" style="swimlane;fontStyle=0;align=center;verticalAlign=top;childLayout=stackLayout;horizontal=1;startSize=40;horizontalStack=0;resizeParent=1;resizeLast=0;collapsible=1;marginBottom=0;rounded=0;shadow=0;strokeWidth=1;fontFamily=TitilliumText25L;fontColor=#012656;strokeColor=#012656;" vertex="1" parent="WIyWlLk6GJQsqaUBKTNV-1">
          <mxGeometry x="140" y="30" width="140" height="92" as="geometry">
            <mxRectangle x="230" y="140" width="160" height="26" as="alternateBounds" />
          </mxGeometry>
        </mxCell>
        <mxCell id="f7o3RJ1YymLaZaOh2jX9-14" value="+walk():void" style="text;align=left;verticalAlign=top;spacingLeft=4;spacingRight=4;overflow=hidden;rotatable=0;points=[[0,0.5],[1,0.5]];portConstraint=eastwest;fontFamily=TitilliumText25L;fontColor=#012656;fontStyle=2" vertex="1" parent="f7o3RJ1YymLaZaOh2jX9-13">
          <mxGeometry y="40" width="140" height="26" as="geometry" />
        </mxCell>
        <mxCell id="f7o3RJ1YymLaZaOh2jX9-15" value="+printInfo():void" style="text;align=left;verticalAlign=top;spacingLeft=4;spacingRight=4;overflow=hidden;rotatable=0;points=[[0,0.5],[1,0.5]];portConstraint=eastwest;fontFamily=TitilliumText25L;fontColor=#012656;fontStyle=2" vertex="1" parent="f7o3RJ1YymLaZaOh2jX9-13">
          <mxGeometry y="66" width="140" height="26" as="geometry" />
        </mxCell>
        <mxCell id="f7o3RJ1YymLaZaOh2jX9-16" value="Passenger" style="swimlane;fontStyle=0;align=center;verticalAlign=top;childLayout=stackLayout;horizontal=1;startSize=26;horizontalStack=0;resizeParent=1;resizeLast=0;collapsible=1;marginBottom=0;rounded=0;shadow=0;strokeWidth=1;fontFamily=TitilliumText25L;fontColor=#012656;strokeColor=#012656;" vertex="1" parent="WIyWlLk6GJQsqaUBKTNV-1">
          <mxGeometry x="40" y="317" width="160" height="112" as="geometry">
            <mxRectangle x="130" y="380" width="160" height="26" as="alternateBounds" />
          </mxGeometry>
        </mxCell>
        <mxCell id="f7o3RJ1YymLaZaOh2jX9-17" value="+vehicle:Vehicle" style="text;align=left;verticalAlign=top;spacingLeft=4;spacingRight=4;overflow=hidden;rotatable=0;points=[[0,0.5],[1,0.5]];portConstraint=eastwest;fontFamily=TitilliumText25L;fontColor=#012656;" vertex="1" parent="f7o3RJ1YymLaZaOh2jX9-16">
          <mxGeometry y="26" width="160" height="26" as="geometry" />
        </mxCell>
        <mxCell id="f7o3RJ1YymLaZaOh2jX9-18" value="" style="line;html=1;strokeWidth=1;align=left;verticalAlign=middle;spacingTop=-1;spacingLeft=3;spacingRight=3;rotatable=0;labelPosition=right;points=[];portConstraint=eastwest;fontFamily=TitilliumText25L;fontColor=#012656;strokeColor=#012656;" vertex="1" parent="f7o3RJ1YymLaZaOh2jX9-16">
          <mxGeometry y="52" width="160" height="8" as="geometry" />
        </mxCell>
        <mxCell id="f7o3RJ1YymLaZaOh2jX9-19" value="+enterVehicle(v:Vehicle):void" style="text;align=left;verticalAlign=top;spacingLeft=4;spacingRight=4;overflow=hidden;rotatable=0;points=[[0,0.5],[1,0.5]];portConstraint=eastwest;fontFamily=TitilliumText25L;fontColor=#012656;" vertex="1" parent="f7o3RJ1YymLaZaOh2jX9-16">
          <mxGeometry y="60" width="160" height="26" as="geometry" />
        </mxCell>
        <mxCell id="f7o3RJ1YymLaZaOh2jX9-20" value="+walk():void" style="text;align=left;verticalAlign=top;spacingLeft=4;spacingRight=4;overflow=hidden;rotatable=0;points=[[0,0.5],[1,0.5]];portConstraint=eastwest;fontFamily=TitilliumText25L;fontColor=#012656;" vertex="1" parent="f7o3RJ1YymLaZaOh2jX9-16">
          <mxGeometry y="86" width="160" height="26" as="geometry" />
        </mxCell>
      </root>
    </mxGraphModel>
  </diagram>
</mxfile>
